<mxfile host="app.diagrams.net" modified="2022-11-14T02:49:35.490Z" agent="5.0 (Windows NT 10.0; Win64; x64) AppleWebKit/537.36 (KHTML, like Gecko) Chrome/106.0.0.0 Safari/537.36" etag="-yyzdoTzzTt3Vc2K-fLl" version="20.5.3" type="github">
  <diagram id="FLNIjY3PEFjiM-Ad9Ee6" name="第 1 页">
    <mxGraphModel dx="2489" dy="762" grid="1" gridSize="10" guides="1" tooltips="1" connect="1" arrows="1" fold="1" page="1" pageScale="1" pageWidth="827" pageHeight="1169" math="0" shadow="0">
      <root>
        <mxCell id="0" />
        <mxCell id="1" parent="0" />
        <mxCell id="wdKoI1DGXYxSUQmDiOZY-1" value="" style="shape=ext;double=1;rounded=0;whiteSpace=wrap;html=1;" vertex="1" parent="1">
          <mxGeometry x="-740" y="290" width="260" height="260" as="geometry" />
        </mxCell>
        <mxCell id="wdKoI1DGXYxSUQmDiOZY-2" value="" style="rounded=1;whiteSpace=wrap;html=1;strokeWidth=2;fillWeight=4;hachureGap=8;hachureAngle=45;fillColor=#1ba1e2;sketch=1;" vertex="1" parent="1">
          <mxGeometry x="-740" y="340" width="260" height="60" as="geometry" />
        </mxCell>
        <mxCell id="wdKoI1DGXYxSUQmDiOZY-3" value="" style="rounded=1;whiteSpace=wrap;html=1;strokeWidth=2;fillWeight=4;hachureGap=8;hachureAngle=45;fillColor=#1ba1e2;sketch=1;" vertex="1" parent="1">
          <mxGeometry x="-740" y="410" width="260" height="60" as="geometry" />
        </mxCell>
        <mxCell id="wdKoI1DGXYxSUQmDiOZY-4" value="&lt;font style=&quot;font-size: 14px;&quot;&gt;用户上一个停留页面&lt;/font&gt;" style="text;strokeColor=none;fillColor=none;html=1;fontSize=24;fontStyle=1;verticalAlign=middle;align=center;" vertex="1" parent="1">
          <mxGeometry x="-660" y="290" width="100" height="40" as="geometry" />
        </mxCell>
        <mxCell id="wdKoI1DGXYxSUQmDiOZY-5" value="" style="rounded=1;whiteSpace=wrap;html=1;strokeWidth=2;fillWeight=4;hachureGap=8;hachureAngle=45;fillColor=#1ba1e2;sketch=1;" vertex="1" parent="1">
          <mxGeometry x="-740" y="480" width="260" height="60" as="geometry" />
        </mxCell>
      </root>
    </mxGraphModel>
  </diagram>
</mxfile>
